<svg width="29" height="30" viewBox="0 0 29 30" fill="none" xmlns="http://www.w3.org/2000/svg">
<path d="M27.2606 13.4455L16.5629 6.82439C16.2982 6.65781 15.9952 6.56781 15.6854 6.56379C15.3756 6.55977 15.0705 6.64188 14.8019 6.80154C14.5105 6.97711 14.2691 7.22934 14.1024 7.53262C13.9357 7.8359 13.8495 8.17942 13.8526 8.5283V13.1601L3.61652 6.82264C3.35187 6.65605 3.04883 6.56605 2.73906 6.56203C2.42929 6.55801 2.12417 6.64012 1.85556 6.79978C1.56411 6.97535 1.32277 7.22758 1.15604 7.53086C0.989307 7.83414 0.903132 8.17766 0.906263 8.52654V21.4758C0.902973 21.8247 0.989077 22.1684 1.15582 22.4718C1.32256 22.7752 1.56399 23.0275 1.85556 23.2031C2.12417 23.3628 2.42929 23.4449 2.73906 23.4409C3.04883 23.4368 3.35187 23.3468 3.61652 23.1803L13.8526 16.8398V21.4734C13.8489 21.8228 13.9348 22.167 14.1016 22.4708C14.2684 22.7747 14.51 23.0273 14.8019 23.2031C15.0705 23.3628 15.3756 23.4449 15.6854 23.4409C15.9952 23.4368 16.2982 23.3468 16.5629 23.1803L27.2606 16.5592C27.5149 16.3944 27.7246 16.1654 27.8699 15.8938C28.0152 15.6222 28.0915 15.3169 28.0915 15.0064C28.0915 14.696 28.0152 14.3906 27.8699 14.119C27.7246 13.8474 27.5149 13.6185 27.2606 13.4537V13.4455Z" fill="black"/>
</svg>
