<svg width="29" height="30" viewBox="0 0 29 30" fill="none" xmlns="http://www.w3.org/2000/svg">
<path d="M1.73942 13.4455L12.4371 6.82439C12.7018 6.65781 13.0048 6.56781 13.3146 6.56379C13.6244 6.55977 13.9295 6.64188 14.1981 6.80154C14.4895 6.97711 14.7309 7.22934 14.8976 7.53262C15.0643 7.8359 15.1505 8.17942 15.1474 8.5283V13.1601L25.3835 6.82264C25.6481 6.65605 25.9512 6.56605 26.2609 6.56203C26.5707 6.55801 26.8758 6.64012 27.1444 6.79978C27.4359 6.97535 27.6772 7.22758 27.844 7.53086C28.0107 7.83414 28.0969 8.17766 28.0937 8.52654V21.4758C28.097 21.8247 28.0109 22.1684 27.8442 22.4718C27.6774 22.7752 27.436 23.0275 27.1444 23.2031C26.8758 23.3628 26.5707 23.4449 26.2609 23.4409C25.9512 23.4368 25.6481 23.3468 25.3835 23.1803L15.1474 16.8398V21.4734C15.1511 21.8228 15.0652 22.167 14.8984 22.4708C14.7316 22.7747 14.49 23.0273 14.1981 23.2031C13.9295 23.3628 13.6244 23.4449 13.3146 23.4409C13.0048 23.4368 12.7018 23.3468 12.4371 23.1803L1.73942 16.5592C1.48511 16.3944 1.27544 16.1654 1.1301 15.8938C0.984757 15.6222 0.908508 15.3169 0.908508 15.0064C0.908508 14.696 0.984757 14.3906 1.1301 14.119C1.27544 13.8474 1.48511 13.6185 1.73942 13.4537V13.4455Z" fill="black"/>
</svg>
