<svg width="41" height="41" viewBox="0 0 41 41" fill="none" xmlns="http://www.w3.org/2000/svg">
<path d="M7.10323 23.7971C6.50543 22.8013 6.18964 21.6616 6.18964 20.5001C6.18964 19.3385 6.50543 18.1989 7.10323 17.203C7.28695 16.8964 7.53278 16.6316 7.82493 16.4256C8.11708 16.2197 8.44908 16.0771 8.7996 16.0071L11.6918 15.428C11.8643 15.3939 12.0199 15.3016 12.1326 15.1666L15.6654 10.9248C17.6846 8.49901 18.696 7.2878 19.5963 7.61409C20.4966 7.94039 20.5 9.51889 20.5 12.6759V28.3276C20.5 31.4829 20.5 33.0597 19.598 33.3877C18.6977 33.7123 17.6864 32.5011 15.6671 30.077L12.1291 25.8335C12.0169 25.6988 11.862 25.6066 11.6901 25.5721L8.7979 24.993C8.44737 24.923 8.11537 24.7804 7.82322 24.5745C7.53107 24.3685 7.28695 24.1038 7.10323 23.7971Z" fill="black"/>
<path d="M24.8323 14.4594C26.4263 16.0533 27.3255 18.2126 27.3342 20.4667C27.3428 22.7208 26.4601 24.8869 24.8785 26.4929M31.8724 10.8361C34.4226 13.386 35.8616 16.8407 35.8757 20.447C35.8898 24.0534 34.4778 27.5192 31.9475 30.089" stroke="black" stroke-width="2" stroke-linecap="round"/>
</svg>
